HIERARCHY
ROOT hip
{
	OFFSET 0.000000 0.000000 0.000000 
	CHANNELS 6 Xposition Yposition Zposition Xrotation Zrotation Yrotation
	JOINT abdomen
	{
		OFFSET 0.000000 3.402643 0.000000 
		CHANNELS 3 Xrotation Zrotation Yrotation
		JOINT chest
		{
			OFFSET 0.000000 8.438565 -0.680529 
			CHANNELS 3 Xrotation Zrotation Yrotation
			JOINT neck
			{
				OFFSET 0.000000 10.207942 -0.272212 
				CHANNELS 3 Xrotation Zrotation Yrotation
				JOINT head
				{
					OFFSET 0.000000 3.130431 0.000000 
					CHANNELS 3 Xrotation Zrotation Yrotation
					End Site
					{
						OFFSET 0.000000 3.130435 0.000000 
					}
				}
			}
			JOINT lCollar
			{
				OFFSET 3.470700 6.669187 -0.816635 
				CHANNELS 3 Yrotation Zrotation Xrotation
				JOINT lShldr
				{
					OFFSET 3.198488 0.000000 0.000000 
					CHANNELS 3 Zrotation Yrotation Xrotation
					JOINT lForeArm
					{
						OFFSET 10.139888 0.000000 0.000000 
						CHANNELS 3 Yrotation Zrotation Xrotation
						JOINT lHand
						{
							OFFSET 8.370511 0.000000 0.000000 
							CHANNELS 3 Zrotation Yrotation Xrotation
							End Site
							{
								OFFSET 4.083176 0.000000 0.000000 
							}
						}
					}
				}
			}
			JOINT rCollar
			{
				OFFSET -3.470700 6.669187 -0.816635 
				CHANNELS 3 Yrotation Zrotation Xrotation
				JOINT rShldr
				{
					OFFSET -3.198488 0.000000 0.000000 
					CHANNELS 3 Zrotation Yrotation Xrotation
					JOINT rForeArm
					{
						OFFSET -10.139888 0.000000 0.000000 
						CHANNELS 3 Yrotation Zrotation Xrotation
						JOINT rHand
						{
							OFFSET -8.370511 0.000000 0.000000 
							CHANNELS 3 Zrotation Yrotation Xrotation
							End Site
							{
								OFFSET -4.083176 0.000000 0.000000 
							}
						}
					}
				}
			}
		}
	}
	JOINT lThigh
	{
		OFFSET 5.308129 -1.633274 1.361059 
		CHANNELS 3 Xrotation Zrotation Yrotation
		JOINT lShin
		{
			OFFSET -2.041588 -20.007561 0.000000 
			CHANNELS 3 Xrotation Zrotation Yrotation
			JOINT lFoot
			{
				OFFSET 0.000000 -19.190928 -1.224953 
				CHANNELS 3 Xrotation Yrotation Zrotation
				End Site
				{
					OFFSET 0.000000 -2.449906 4.627600 
				}
			}
		}
	}
	JOINT rThigh
	{
		OFFSET -5.308129 -1.633274 1.361059 
		CHANNELS 3 Xrotation Zrotation Yrotation
		JOINT rShin
		{
			OFFSET 2.041588 -20.007561 0.000000 
			CHANNELS 3 Xrotation Zrotation Yrotation
			JOINT rFoot
			{
				OFFSET 0.000000 -19.190928 -1.224953 
				CHANNELS 3 Xrotation Yrotation Zrotation
				End Site
				{
					OFFSET 0.000000 -2.449906 4.627600 
				}
			}
		}
	}
}
MOTION
Frames: 14
Frame Time: 0.016667
1.377620 47.833004 0.218289 8.602251 -5.457917 -84.650604 33.511059 4.169870 -5.551520 -23.217083 7.690762 -7.360940 -25.883911 3.268361 24.936186 16.861717 -4.510280 24.416183 22.255859 -10.087891 0.000000 -58.645485 -59.743385 62.929451 -80.860130 -4.247304 -60.859470 -34.423222 16.677624 -11.233129 -14.661025 3.022893 -0.132596 18.071266 -10.253607 -80.834518 15.205555 -4.898830 110.165573 18.961405 -3.300248 -1.184826 -5.827937 47.731560 68.328148 46.520161 -0.454265 -2.986691 20.696491 1.682347 -12.689620 2.280319 -4.132950 -0.482615 27.350542 0.780800 2.087947 -17.853329 -12.544433 8.103106 
1.347106 47.784420 0.357692 8.601084 -5.282276 -84.025291 33.420547 4.413947 -5.406155 -23.654278 7.604924 -7.280928 -25.663649 3.006333 25.849234 16.682465 -4.504881 25.297928 22.344034 -9.934390 -0.053380 -56.981571 -58.569077 60.555145 -80.717941 -4.172337 -60.023594 -33.039707 15.461513 -9.912251 -14.750251 3.103527 -0.104257 17.483475 -10.216668 -82.696747 15.160681 -4.847742 109.998985 18.486134 -2.544071 -0.860501 -6.688514 47.369736 67.944908 46.786510 -0.454278 -2.922186 18.392334 2.868547 -12.876937 2.215594 -4.374546 -0.928070 27.523083 0.819710 1.900597 -18.015341 -12.594975 8.060715 
1.286134 47.721512 0.539869 8.609376 -5.283683 -83.151268 33.516827 4.601040 -5.084102 -23.922649 7.510795 -7.111246 -25.348646 2.828350 26.656462 16.601507 -4.592937 25.997892 22.349194 -9.847883 -0.081757 -55.083591 -56.821327 57.362469 -80.385765 -4.153568 -59.871582 -31.940477 14.462436 -8.978550 -14.752512 2.908034 -0.066516 17.328188 -10.244802 -84.778305 14.967332 -4.951839 107.539246 17.503227 -2.077511 -0.685924 -7.462391 46.796810 66.984085 47.066261 -0.454235 -3.023090 15.960402 3.906355 -13.054348 2.436572 -4.416242 -1.722354 27.711468 0.819584 1.831660 -18.026733 -12.786039 7.949808 
1.225167 47.658600 0.722033 8.598414 -5.281682 -82.279381 33.605434 4.788174 -4.762099 -24.181738 7.426378 -6.933176 -25.042868 2.643362 27.463499 16.507530 -4.678566 26.706835 22.352871 -9.774865 -0.119017 -53.422829 -55.029987 54.392643 -80.063980 -4.126817 -59.711510 -30.855310 13.460073 -8.067463 -14.764278 2.722310 -0.028761 17.161823 -10.268210 -86.862137 14.764832 -5.054672 105.084526 16.531372 -1.617913 -0.520915 -8.208004 46.179787 66.057755 47.345634 -0.454130 -3.133731 13.541016 4.950569 -13.189967 2.685260 -4.472667 -2.516834 27.899624 0.828036 1.764682 -18.021681 -12.961863 7.847375 
1.144448 47.593678 0.938480 8.608163 -5.538054 -81.229675 33.617264 4.985066 -4.440156 -24.452091 7.342853 -6.684821 -24.572807 2.446855 28.104172 16.334673 -4.683205 27.227024 22.271349 -9.652460 -0.081816 -51.898640 -52.963020 51.332661 -79.635605 -4.146617 -60.001865 -30.338198 12.846425 -7.499244 -14.761578 2.466292 -0.094765 17.026491 -10.269753 -89.754181 14.465364 -5.125626 101.673111 15.560406 -1.139895 -0.347914 -9.007272 45.487194 65.127663 47.489132 -0.454136 -3.218218 11.108829 6.145326 -13.142740 3.130866 -4.594823 -3.588404 28.339174 0.819319 1.783584 -17.895720 -13.083747 7.879218 
1.063728 47.528755 1.154923 8.602591 -5.798823 -80.172371 33.621353 5.172166 -4.128013 -24.711077 7.249542 -6.428047 -24.101894 2.243644 28.744806 16.155535 -4.678156 27.756121 22.197931 -9.533860 -0.053500 -50.611401 -50.843472 48.483974 -79.213539 -4.165966 -60.292656 -29.839943 12.232051 -6.949947 -14.759487 2.210272 -0.160793 16.875496 -10.290097 -92.639229 14.167334 -5.166459 98.259506 14.581209 -0.668571 -0.184101 -9.780063 44.763565 64.230598 47.641724 -0.444531 -3.318580 8.653349 7.353915 -13.061175 3.592045 -4.706129 -4.649838 28.778381 0.809368 1.811870 -17.747541 -13.201723 7.903247 
0.949151 47.479904 1.436414 8.619556 -6.242238 -78.867569 33.533779 5.262291 -3.736346 -24.794973 7.165832 -6.161586 -23.388351 2.085605 28.937344 15.981102 -4.770247 28.025074 22.124403 -9.425097 -0.026773 -49.074165 -48.421947 45.305443 -78.710075 -4.169897 -61.180866 -30.221029 12.183909 -7.094396 -14.673450 2.014585 -0.123079 16.851717 -10.155544 -95.287621 13.587461 -5.234610 92.043549 13.437799 -0.339669 -0.091252 -10.383560 43.943916 63.180267 47.668495 -0.434464 -3.121977 5.891526 8.101027 -12.744025 4.106659 -4.956314 -5.814819 29.298506 0.721144 1.795961 -17.292658 -13.317179 8.005651 
0.834579 47.431057 1.717913 8.615803 -6.687841 -77.557655 33.447086 5.342447 -3.354415 -24.889641 7.072042 -5.903612 -22.675526 1.927934 29.139492 15.806582 -4.862170 28.284382 22.042500 -9.312742 0.010513 -47.797409 -45.949844 42.356243 -78.201332 -4.190059 -62.076374 -30.612902 12.141603 -7.245413 -14.596926 1.819027 -0.085320 16.819862 -10.033267 -97.930702 13.007342 -5.239277 85.831184 12.294922 0.000000 0.000000 -10.942626 43.102119 62.167973 47.663925 -0.407845 -2.974872 3.143570 8.844304 -12.406791 4.623232 -5.208714 -6.993019 29.836462 0.628301 1.817745 -16.838242 -13.464871 8.088341 
0.700461 47.429451 2.091359 8.440745 -7.214652 -75.872818 33.348488 5.520049 -2.953052 -24.892450 7.251340 -5.551142 -21.795267 1.577607 29.172503 15.623414 -4.948165 28.288551 21.961409 -9.310294 -0.008938 -46.752510 -43.156723 39.864014 -77.440399 -4.265417 -63.185806 -31.459707 12.700004 -7.747562 -14.508204 1.652902 -0.123134 16.592951 -9.569628 -100.416649 12.376242 -5.168428 76.821671 11.064813 0.410242 0.090243 -11.375717 41.996475 60.938866 47.144501 -0.424710 -3.014701 0.733334 9.660514 -11.912634 5.349546 -5.613345 -8.700975 30.610168 0.701310 2.027525 -15.389732 -13.321389 8.488151 
0.566341 47.427849 2.464816 8.251432 -7.732904 -74.198509 33.263546 5.687795 -2.541033 -24.893066 7.430575 -5.199975 -20.915421 1.227527 29.206726 15.450861 -5.034617 28.282225 21.870544 -9.317555 -0.026829 -45.928925 -40.336548 37.566662 -76.688255 -4.369291 -64.300980 -32.309414 13.265442 -8.255648 -14.419497 1.479326 -0.170438 16.332899 -9.109089 -102.910103 11.781000 -4.998291 67.813728 9.835464 0.832121 0.174109 -11.729136 40.878605 59.773056 46.633827 -0.424284 -3.076968 -1.711409 10.465173 -11.375387 6.089734 -5.983828 -10.412496 31.402365 0.769313 2.267161 -13.933372 -13.222463 8.877099 
0.437240 47.486538 2.940861 7.921436 -8.449378 -72.186272 33.260475 5.689270 -2.178583 -24.803547 7.782820 -5.025723 -20.046146 0.939839 28.969227 15.278225 -5.029759 28.017286 21.781166 -9.311372 -0.035795 -45.367413 -37.596375 35.842564 -75.652626 -4.435127 -65.452873 -33.067154 13.630981 -8.767357 -14.243468 1.481207 -0.180034 16.034163 -8.213449 -105.289330 11.281946 -4.380758 56.172581 9.056520 1.530314 0.263826 -11.941293 39.290630 58.246269 46.107128 -0.443716 -3.049584 -4.265901 11.518610 -10.907076 6.688066 -6.698209 -12.196167 32.806179 0.690851 2.137923 -11.759730 -12.343204 9.519330 
0.308150 47.545238 3.416916 7.557962 -9.148956 -70.174049 33.257412 5.690520 -1.815164 -24.709660 8.125566 -4.843292 -19.184349 0.650874 28.722782 15.100062 -5.032899 27.762062 21.690296 -9.318536 -0.053725 -44.926395 -34.852760 34.219833 -74.625542 -4.517530 -66.593285 -33.820606 13.995690 -9.291979 -14.067684 1.480655 -0.180173 15.693051 -7.324629 -107.680283 10.908484 -3.676130 44.541718 8.268733 2.219963 0.342364 -12.072255 37.713116 56.785198 45.589947 -0.443677 -3.024492 -6.855675 12.561967 -10.369160 7.308383 -7.388591 -13.977698 34.219780 0.612378 1.997879 -9.588297 -11.413583 10.119705 
0.235938 47.657001 3.972803 7.036284 -9.861510 -67.812340 33.166439 5.622902 -1.569332 -24.537985 8.567726 -4.492603 -18.604561 0.507719 28.214106 15.011083 -5.035672 27.320477 21.781166 -9.311372 -0.035795 -44.726818 -32.497051 33.486679 -73.503204 -4.544261 -67.876076 -34.259773 14.058262 -9.483296 -13.706618 1.648357 -0.152017 15.338002 -6.097151 -110.534286 10.987370 -2.847517 33.021935 9.164998 3.160766 0.519827 -12.394351 35.681644 54.647938 44.536049 -0.443411 -2.973564 -8.751822 13.233061 -9.686205 7.474599 -8.364601 -16.071827 36.771324 0.494964 2.266262 -6.500606 -10.654033 10.660120 
0.163730 47.768776 4.528695 6.493248 -10.560019 -65.432228 33.075600 5.564950 -1.314736 -24.359314 9.010097 -4.132515 -18.012495 0.363165 27.695948 14.921988 -5.038010 26.878874 21.870544 -9.317555 -0.026829 -44.564854 -30.155552 32.781166 -72.373436 -4.588051 -69.148872 -34.691254 14.114884 -9.681414 -13.355469 1.826205 -0.123767 14.920801 -4.897173 -113.380104 11.239010 -2.049663 21.522772 10.062858 4.091856 0.696198 -12.611737 33.627060 52.578991 43.482613 -0.426606 -2.907093 -10.649126 13.847464 -9.009128 7.673866 -9.334746 -18.160696 39.303150 0.367783 2.516515 -3.411111 -9.841234 11.178623 
